<svg width="30" height="30" viewBox="0 0 30 30" fill="none" xmlns="http://www.w3.org/2000/svg">
<path d="M14.6203 7.15184C10.4924 7.15184 7.16275 10.4817 7.16275 14.6099C7.16275 18.738 10.4924 22.0679 14.6203 22.0679C18.7482 22.0679 22.0778 18.738 22.0778 14.6099C22.0778 10.4817 18.7482 7.15184 14.6203 7.15184ZM14.6203 19.4585C11.9527 19.4585 9.77191 17.2841 9.77191 14.6099C9.77191 11.9356 11.9462 9.76117 14.6203 9.76117C17.2943 9.76117 19.4686 11.9356 19.4686 14.6099C19.4686 17.2841 17.2879 19.4585 14.6203 19.4585ZM24.1223 6.84677C24.1223 7.81391 23.3434 8.58632 22.3829 8.58632C21.4158 8.58632 20.6434 7.80742 20.6434 6.84677C20.6434 5.88612 21.4223 5.10721 22.3829 5.10721C23.3434 5.10721 24.1223 5.88612 24.1223 6.84677ZM29.0615 8.61229C28.9512 6.28206 28.419 4.21797 26.712 2.51736C25.0115 0.816748 22.9475 0.284497 20.6175 0.167661C18.216 0.0313526 11.0181 0.0313526 8.61661 0.167661C6.29303 0.278006 4.22907 0.810257 2.52208 2.51087C0.815092 4.21147 0.289365 6.27557 0.172537 8.60579C0.0362376 11.0074 0.0362376 18.2058 0.172537 20.6074C0.282875 22.9376 0.815092 25.0017 2.52208 26.7023C4.22907 28.403 6.28654 28.9352 8.61661 29.052C11.0181 29.1883 18.216 29.1883 20.6175 29.052C22.9475 28.9417 25.0115 28.4094 26.712 26.7023C28.4125 25.0017 28.9447 22.9376 29.0615 20.6074C29.1978 18.2058 29.1978 11.0139 29.0615 8.61229ZM25.9591 23.1843C25.4528 24.4565 24.4728 25.4366 23.1942 25.9494C21.2795 26.7088 16.7362 26.5336 14.6203 26.5336C12.5044 26.5336 7.95459 26.7023 6.0464 25.9494C4.77427 25.4431 3.79421 24.463 3.28146 23.1843C2.52208 21.2695 2.69732 16.7259 2.69732 14.6099C2.69732 12.4938 2.52857 7.94373 3.28146 6.03541C3.78772 4.7632 4.76778 3.78308 6.0464 3.2703C7.96108 2.51087 12.5044 2.68612 14.6203 2.68612C16.7362 2.68612 21.286 2.51736 23.1942 3.2703C24.4663 3.77659 25.4464 4.75671 25.9591 6.03541C26.7185 7.95022 26.5432 12.4938 26.5432 14.6099C26.5432 16.7259 26.7185 21.276 25.9591 23.1843Z" fill="#F5F5F5"/>
</svg>
