<svg width="30" height="30" viewBox="0 0 30 30" fill="none" xmlns="http://www.w3.org/2000/svg">
<path d="M27.9222 0.0771484H2.99233C1.85001 0.0771484 0.921875 1.01833 0.921875 2.1737V27.0597C0.921875 28.2151 1.85001 29.1563 2.99233 29.1563H27.9222C29.0645 29.1563 29.9991 28.2151 29.9991 27.0597V2.1737C29.9991 1.01833 29.0645 0.0771484 27.9222 0.0771484ZM9.70995 25.0021H5.40029V11.1246H9.71644V25.0021H9.70995ZM7.55512 9.22928C6.17265 9.22928 5.05629 8.10636 5.05629 6.73029C5.05629 5.35423 6.17265 4.23131 7.55512 4.23131C8.93109 4.23131 10.0539 5.35423 10.0539 6.73029C10.0539 8.11285 8.93758 9.22928 7.55512 9.22928ZM25.8647 25.0021H21.555V18.2516C21.555 16.6419 21.5226 14.5713 19.3158 14.5713C17.0701 14.5713 16.7261 16.3238 16.7261 18.1348V25.0021H12.4165V11.1246H16.5509V13.0199H16.6093C17.1869 11.9295 18.5954 10.7806 20.6918 10.7806C25.0534 10.7806 25.8647 13.6561 25.8647 17.3948V25.0021Z" fill="#F5F5F5"/>
</svg>
