<svg width="34" height="28" viewBox="0 0 34 28" fill="none" xmlns="http://www.w3.org/2000/svg">
<path d="M30.3542 7.49628C30.3753 7.79149 30.3753 8.08676 30.3753 8.38196C30.3753 17.3861 23.5225 27.761 10.9976 27.761C7.13888 27.761 3.55433 26.6433 0.539062 24.7034C1.08731 24.7666 1.6144 24.7877 2.18374 24.7877C5.36763 24.7877 8.29859 23.7123 10.6391 21.8777C7.64494 21.8144 5.13573 19.8533 4.2712 17.1542C4.69295 17.2174 5.11464 17.2596 5.55748 17.2596C6.16894 17.2596 6.78048 17.1752 7.34975 17.0277C4.22908 16.395 1.88849 13.6537 1.88849 10.343V10.2587C2.79514 10.7648 3.84952 11.0811 4.96698 11.1233C3.13252 9.90018 1.93068 7.81258 1.93068 5.45081C1.93068 4.18561 2.26799 3.02582 2.85843 2.01364C6.21107 6.1467 11.2506 8.8458 16.9015 9.14107C16.7961 8.63498 16.7328 8.10785 16.7328 7.58066C16.7328 3.82712 19.7692 0.769531 23.5435 0.769531C25.5045 0.769531 27.2756 1.59192 28.5197 2.92041C30.0589 2.62521 31.5349 2.05583 32.8423 1.27562C32.3362 2.85719 31.2608 4.18568 29.8481 5.0291C31.2187 4.88156 32.5471 4.50191 33.77 3.97479C32.8424 5.32431 31.6826 6.52622 30.3542 7.49628Z" fill="#F5F5F5"/>
</svg>
