<svg width="132" height="122" viewBox="0 0 132 122" fill="none" xmlns="http://www.w3.org/2000/svg">
<g clip-path="url(#clip0_523_14)">
<path d="M131.349 60.9426C126.283 96.5905 94.7303 121.943 51.7724 121.943L27.7461 122H0.144737V90.4532H27.6447L27.7316 116.852L43.8408 90.4532H62.2079C80.6329 90.4532 95.4829 78.1643 97.929 60.9713C100.375 43.7783 88.9842 31.6615 70.5592 31.6615H19.1921L0 0L11.5934 0.114716H69.0539C112.012 0.114716 136.4 25.2948 131.349 60.9426Z" fill="white"/>
<path d="M72.5131 66.0762C75.7105 66.0762 78.3026 63.5082 78.3026 60.3404C78.3026 57.1726 75.7105 54.6046 72.5131 54.6046C69.3157 54.6046 66.7236 57.1726 66.7236 60.3404C66.7236 63.5082 69.3157 66.0762 72.5131 66.0762Z" fill="white"/>
<path d="M52.25 66.0762C55.4475 66.0762 58.0395 63.5082 58.0395 60.3404C58.0395 57.1726 55.4475 54.6046 52.25 54.6046C49.0526 54.6046 46.4606 57.1726 46.4606 60.3404C46.4606 63.5082 49.0526 66.0762 52.25 66.0762Z" fill="white"/>
<path d="M30.5395 66.0762C33.7369 66.0762 36.3289 63.5082 36.3289 60.3404C36.3289 57.1726 33.7369 54.6046 30.5395 54.6046C27.342 54.6046 24.75 57.1726 24.75 60.3404C24.75 63.5082 27.342 66.0762 30.5395 66.0762Z" fill="white"/>
</g>
<defs>
<clipPath id="clip0_523_14">
<rect width="132" height="122" fill="white"/>
</clipPath>
</defs>
</svg>
